HIERARCHY
ROOT Hip
{
   OFFSET 0.00000 0.00000 0.00000
   CHANNELS 6 Xposition Yposition Zposition Zrotation Yrotation Xrotation
   JOINT Head
   {
      OFFSET 0.000000 24.190001 0.000000
      CHANNELS 3 Zrotation Yrotation Xrotation
      End Site
      {
         OFFSET 0.000000 16.761999 0.000000
      }
      JOINT LeftShoulder
      {
         OFFSET 11.515001 0.000000 0.000000
         CHANNELS 3 Zrotation Yrotation Xrotation
         JOINT LeftHand
         {
            OFFSET 0.000000 -15.248000 0.000000
            CHANNELS 3 Zrotation Yrotation Xrotation
            End Site
            {
               OFFSET 0.000000 -14.262999 0.000000
            }
         }
      }
      JOINT RightShoulder
      {
         OFFSET -12.116999 0.000000 0.000000
         CHANNELS 3 Zrotation Yrotation Xrotation
         JOINT RightHand
         {
            OFFSET 0.000000 -16.378001 0.000000
            CHANNELS 3 Zrotation Yrotation Xrotation
            End Site
            {
               OFFSET 0.000000 -13.832000 0.000000
            }
         }
      }
   }
   JOINT LeftHip
   {
      OFFSET 8.994099 0.000000 0.000000
      CHANNELS 3 Zrotation Yrotation Xrotation
      JOINT LeftKnee
      {
         OFFSET 0.000000 -25.251000 0.000000
         CHANNELS 3 Zrotation Yrotation Xrotation
         JOINT LeftFoot
         {
            OFFSET 0.000000 -22.891001 0.000000
            CHANNELS 3 Zrotation Yrotation Xrotation
            End Site
            {
               OFFSET 0.000000 0.000000 14.411000
            }
         }
      }
   }
   JOINT RightHip
   {
      OFFSET -8.994099 0.000000 0.000000
      CHANNELS 3 Zrotation Yrotation Xrotation
      JOINT RightKnee
      {
         OFFSET 0.000000 -25.909001 0.000000
         CHANNELS 3 Zrotation Yrotation Xrotation
         JOINT RightFoot
         {
            OFFSET 0.000000 -21.714000 0.000000
            CHANNELS 3 Zrotation Yrotation Xrotation
            End Site
            {
               OFFSET 0.000000 0.000000 13.963001
            }
         }
      }
   }
}
MOTION
Frames: 9
Frame Time: 0.016670
8.574197 45.665092 -2.414848 -29.113241 -9.842001 -11.494443 -2.218779 4.298370 -7.150303 -68.235994 -82.210254 92.274640 123.923032 14.743790 207.022310 7.565944 -6.874775 7.850707 239.815755 142.238799 298.227287 263.872365 -23.912817 128.682499 -54.385047 111.493317 -119.463902 -18.548637 -169.107943 -25.963458 -348.509036 -16.320546 7.648772 74.036703 -243.718771 -303.223134 59.237281 156.253418 36.822407
7.918136 45.722760 -2.401838 -29.884192 -10.526256 -11.499009 -2.953551 5.726956 -7.625742 -67.828259 -82.823263 92.828083 124.864464 15.661535 208.763912 6.684165 -8.392305 8.464196 239.488262 141.830108 300.017289 259.913478 -19.954404 129.957149 -48.596127 117.570997 -110.755411 -17.249935 -167.933492 -24.757172 -350.683714 -30.621565 9.560810 56.543263 -239.420670 -326.907197 61.006970 159.629007 34.464086
7.270228 45.838041 -2.318442 -30.555575 -10.652866 -11.390158 -3.743446 6.761522 -8.466492 -67.545790 -82.593550 93.234152 126.591955 16.170294 210.089843 5.489216 -10.169322 9.454940 239.386464 141.860611 301.713634 255.217258 -15.914390 131.346396 -42.708852 123.997413 -101.434415 -16.529772 -168.165008 -23.645396 -357.458387 -49.828511 15.176330 41.643585 -229.255463 -350.398977 62.739700 162.847638 32.315507
6.615143 45.959524 -2.143245 -31.084509 -10.413746 -11.049363 -4.586730 7.599300 -10.211856 -67.472263 -81.175466 93.438443 128.575921 16.483420 210.756729 3.810530 -11.944542 11.885300 239.663060 142.401958 303.851101 250.577320 -12.208435 132.690836 -36.713319 130.413241 -92.193204 -16.310304 -169.612148 -22.697525 -375.218874 -67.450051 31.056460 33.626394 -219.524725 -367.966661 64.276069 166.782592 28.737171
5.930924 45.996298 -1.915669 -31.380116 -9.878437 -10.625902 -5.551023 8.343759 -12.357111 -67.443508 -79.290826 93.651155 130.426478 16.922224 211.082393 1.499226 -13.885869 15.140052 239.988614 143.404398 306.588340 246.574665 -9.022463 133.980294 -30.457900 136.629793 -83.688887 -16.650345 -172.274938 -22.177686 -395.174692 -71.527203 49.827012 33.938134 -219.178571 -375.370340 65.654633 169.900942 25.540731
5.280895 45.925998 -1.640068 -31.214309 -9.155872 -10.309731 -6.973070 9.184838 -14.184346 -67.548105 -78.044248 93.924254 131.624944 17.850954 210.561290 -1.486011 -16.088526 18.695184 240.913422 145.067658 309.555265 243.103016 -6.691014 135.171903 -23.889145 142.600170 -76.054218 -17.754942 -176.382641 -22.461577 -411.179355 -70.441647 64.615960 36.092181 -224.461654 -380.530630 66.380430 172.761193 21.115357
4.308398 45.562648 -1.365233 -31.376028 -7.597159 -9.703729 -8.343319 9.075909 -16.196469 -67.353766 -76.476324 94.712949 131.820096 19.579046 211.024445 -5.638781 -17.907492 23.561721 241.627586 147.461380 312.941755 241.760556 -4.290791 137.355268 -15.728401 148.006429 -69.791057 -19.569143 -181.547234 -24.335973 -423.134071 -68.210121 76.970208 37.282410 -234.082276 -385.576008 67.107169 174.867405 13.548986
3.342457 45.131268 -0.965468 -30.915451 -6.741433 -9.329154 -10.394231 9.278804 -18.271181 -66.579946 -74.049038 95.901156 132.529862 20.810961 212.225480 -10.201829 -19.178987 29.394163 242.302054 150.225230 316.846711 241.321867 -3.695899 138.250296 -6.992091 153.031645 -64.398514 -22.397797 -188.569556 -27.211443 -431.134846 -65.599500 85.664007 31.940611 -245.268268 -395.073906 68.823937 174.951034 4.282390
2.207818 44.644493 -0.527581 -30.286650 -6.606508 -8.732614 -12.772515 9.689680 -20.464802 -65.701543 -71.784168 97.913344 132.740246 23.233974 214.169515 -15.223141 -19.757405 35.991183 242.898329 153.478421 320.398109 242.370219 -5.029496 138.548311 2.359375 157.476309 -59.253913 -25.996946 -196.627117 -31.500207 -433.549072 -64.309216 89.665023 17.744772 -253.011900 -409.065603 70.226625 175.204556 -5.354086
